<svg id="visual" viewBox="0 0 960 300" width="960" height="300" xmlns="http://www.w3.org/2000/svg" xmlns:xlink="http://www.w3.org/1999/xlink" version="1.1"><rect x="0" y="0" width="960" height="300" fill="#ffc0cb"></rect><path d="M0 237L10 227.8C20 218.7 40 200.3 60 200.2C80 200 100 218 120 221.8C140 225.7 160 215.3 180 214.3C200 213.3 220 221.7 240 222.8C260 224 280 218 300 215C320 212 340 212 360 209.5C380 207 400 202 420 196.5C440 191 460 185 480 185.5C500 186 520 193 540 202.5C560 212 580 224 600 225.3C620 226.7 640 217.3 660 213.3C680 209.3 700 210.7 720 211C740 211.3 760 210.7 780 205.7C800 200.7 820 191.3 840 193.5C860 195.7 880 209.3 900 212C920 214.7 940 206.3 950 202.2L960 198L960 0L950 0C940 0 920 0 900 0C880 0 860 0 840 0C820 0 800 0 780 0C760 0 740 0 720 0C700 0 680 0 660 0C640 0 620 0 600 0C580 0 560 0 540 0C520 0 500 0 480 0C460 0 440 0 420 0C400 0 380 0 360 0C340 0 320 0 300 0C280 0 260 0 240 0C220 0 200 0 180 0C160 0 140 0 120 0C100 0 80 0 60 0C40 0 20 0 10 0L0 0Z" fill="#aeaed0"></path><path d="M0 155L10 154.8C20 154.7 40 154.3 60 156.8C80 159.3 100 164.7 120 173.5C140 182.3 160 194.7 180 199.2C200 203.7 220 200.3 240 192.7C260 185 280 173 300 168.8C320 164.7 340 168.3 360 173.5C380 178.7 400 185.3 420 186C440 186.7 460 181.3 480 182.5C500 183.7 520 191.3 540 188.2C560 185 580 171 600 169.5C620 168 640 179 660 181.8C680 184.7 700 179.3 720 177.5C740 175.7 760 177.3 780 175.3C800 173.3 820 167.7 840 166.5C860 165.3 880 168.7 900 174.8C920 181 940 190 950 194.5L960 199L960 0L950 0C940 0 920 0 900 0C880 0 860 0 840 0C820 0 800 0 780 0C760 0 740 0 720 0C700 0 680 0 660 0C640 0 620 0 600 0C580 0 560 0 540 0C520 0 500 0 480 0C460 0 440 0 420 0C400 0 380 0 360 0C340 0 320 0 300 0C280 0 260 0 240 0C220 0 200 0 180 0C160 0 140 0 120 0C100 0 80 0 60 0C40 0 20 0 10 0L0 0Z" fill="#9c9cdb"></path><path d="M0 150L10 152C20 154 40 158 60 159.3C80 160.7 100 159.3 120 157.7C140 156 160 154 180 157.5C200 161 220 170 240 170.5C260 171 280 163 300 157.8C320 152.7 340 150.3 360 154.8C380 159.3 400 170.7 420 171.7C440 172.7 460 163.3 480 161.2C500 159 520 164 540 163C560 162 580 155 600 152.5C620 150 640 152 660 150C680 148 700 142 720 140.7C740 139.3 760 142.7 780 146.3C800 150 820 154 840 159.7C860 165.3 880 172.7 900 175.3C920 178 940 176 950 175L960 174L960 0L950 0C940 0 920 0 900 0C880 0 860 0 840 0C820 0 800 0 780 0C760 0 740 0 720 0C700 0 680 0 660 0C640 0 620 0 600 0C580 0 560 0 540 0C520 0 500 0 480 0C460 0 440 0 420 0C400 0 380 0 360 0C340 0 320 0 300 0C280 0 260 0 240 0C220 0 200 0 180 0C160 0 140 0 120 0C100 0 80 0 60 0C40 0 20 0 10 0L0 0Z" fill="#8b89e4"></path><path d="M0 154L10 146.7C20 139.3 40 124.7 60 123.2C80 121.7 100 133.3 120 136.2C140 139 160 133 180 129.3C200 125.7 220 124.3 240 125.8C260 127.3 280 131.7 300 134C320 136.3 340 136.7 360 139C380 141.3 400 145.7 420 146.7C440 147.7 460 145.3 480 140C500 134.7 520 126.3 540 125.7C560 125 580 132 600 131.2C620 130.3 640 121.7 660 118C680 114.3 700 115.7 720 122.5C740 129.3 760 141.7 780 147.2C800 152.7 820 151.3 840 146C860 140.7 880 131.3 900 125.7C920 120 940 118 950 117L960 116L960 0L950 0C940 0 920 0 900 0C880 0 860 0 840 0C820 0 800 0 780 0C760 0 740 0 720 0C700 0 680 0 660 0C640 0 620 0 600 0C580 0 560 0 540 0C520 0 500 0 480 0C460 0 440 0 420 0C400 0 380 0 360 0C340 0 320 0 300 0C280 0 260 0 240 0C220 0 200 0 180 0C160 0 140 0 120 0C100 0 80 0 60 0C40 0 20 0 10 0L0 0Z" fill="#7876ec"></path><path d="M0 100L10 101.7C20 103.3 40 106.7 60 107.8C80 109 100 108 120 108.2C140 108.3 160 109.7 180 110.3C200 111 220 111 240 113.2C260 115.3 280 119.7 300 121.3C320 123 340 122 360 117.5C380 113 400 105 420 99.8C440 94.7 460 92.3 480 90.3C500 88.3 520 86.7 540 91C560 95.3 580 105.7 600 110.5C620 115.3 640 114.7 660 109.3C680 104 700 94 720 89.7C740 85.3 760 86.7 780 93.2C800 99.7 820 111.3 840 111.5C860 111.7 880 100.3 900 97.5C920 94.7 940 100.3 950 103.2L960 106L960 0L950 0C940 0 920 0 900 0C880 0 860 0 840 0C820 0 800 0 780 0C760 0 740 0 720 0C700 0 680 0 660 0C640 0 620 0 600 0C580 0 560 0 540 0C520 0 500 0 480 0C460 0 440 0 420 0C400 0 380 0 360 0C340 0 320 0 300 0C280 0 260 0 240 0C220 0 200 0 180 0C160 0 140 0 120 0C100 0 80 0 60 0C40 0 20 0 10 0L0 0Z" fill="#6562f3"></path><path d="M0 74L10 73.5C20 73 40 72 60 72.3C80 72.7 100 74.3 120 74.2C140 74 160 72 180 70.3C200 68.7 220 67.3 240 67.2C260 67 280 68 300 70.5C320 73 340 77 360 80.7C380 84.3 400 87.7 420 84.7C440 81.7 460 72.3 480 68.3C500 64.3 520 65.7 540 67.5C560 69.3 580 71.7 600 76.3C620 81 640 88 660 86.2C680 84.3 700 73.7 720 71.3C740 69 760 75 780 80.8C800 86.7 820 92.3 840 95.2C860 98 880 98 900 95.2C920 92.3 940 86.7 950 83.8L960 81L960 0L950 0C940 0 920 0 900 0C880 0 860 0 840 0C820 0 800 0 780 0C760 0 740 0 720 0C700 0 680 0 660 0C640 0 620 0 600 0C580 0 560 0 540 0C520 0 500 0 480 0C460 0 440 0 420 0C400 0 380 0 360 0C340 0 320 0 300 0C280 0 260 0 240 0C220 0 200 0 180 0C160 0 140 0 120 0C100 0 80 0 60 0C40 0 20 0 10 0L0 0Z" fill="#504cf9"></path><path d="M0 67L10 63.2C20 59.3 40 51.7 60 48.7C80 45.7 100 47.3 120 48.3C140 49.3 160 49.7 180 53C200 56.3 220 62.7 240 64.5C260 66.3 280 63.7 300 61.3C320 59 340 57 360 55.7C380 54.3 400 53.7 420 54C440 54.3 460 55.7 480 53.2C500 50.7 520 44.3 540 42.2C560 40 580 42 600 44.7C620 47.3 640 50.7 660 52.5C680 54.3 700 54.7 720 53C740 51.3 760 47.7 780 46.8C800 46 820 48 840 48.2C860 48.3 880 46.7 900 49.2C920 51.7 940 58.3 950 61.7L960 65L960 0L950 0C940 0 920 0 900 0C880 0 860 0 840 0C820 0 800 0 780 0C760 0 740 0 720 0C700 0 680 0 660 0C640 0 620 0 600 0C580 0 560 0 540 0C520 0 500 0 480 0C460 0 440 0 420 0C400 0 380 0 360 0C340 0 320 0 300 0C280 0 260 0 240 0C220 0 200 0 180 0C160 0 140 0 120 0C100 0 80 0 60 0C40 0 20 0 10 0L0 0Z" fill="#3532fd"></path><path d="M0 18L10 17.3C20 16.7 40 15.3 60 18.3C80 21.3 100 28.7 120 29.2C140 29.7 160 23.3 180 21.2C200 19 220 21 240 21.5C260 22 280 21 300 20.7C320 20.3 340 20.7 360 22.8C380 25 400 29 420 32.5C440 36 460 39 480 38.7C500 38.3 520 34.7 540 32.8C560 31 580 31 600 28.5C620 26 640 21 660 19.2C680 17.3 700 18.7 720 21.8C740 25 760 30 780 33.2C800 36.3 820 37.7 840 37.2C860 36.7 880 34.3 900 30.8C920 27.3 940 22.7 950 20.3L960 18L960 0L950 0C940 0 920 0 900 0C880 0 860 0 840 0C820 0 800 0 780 0C760 0 740 0 720 0C700 0 680 0 660 0C640 0 620 0 600 0C580 0 560 0 540 0C520 0 500 0 480 0C460 0 440 0 420 0C400 0 380 0 360 0C340 0 320 0 300 0C280 0 260 0 240 0C220 0 200 0 180 0C160 0 140 0 120 0C100 0 80 0 60 0C40 0 20 0 10 0L0 0Z" fill="#0000ff"></path></svg>